PathFileType	4	(X/Y/Z)	Patient4_TMGait_0pt5_01_right_16.trc.trc
DataRate	CameraRate	NumFrames	NumMarkers	Units	OrigDataRate	OrigDataStartFrame	OrigNumFrames
75.675675675676	75.675675675676	4	33	mm	75.675675675676	89	       141
Frame#	Time	L.ASIS			Sacral			L.Shoulder			Chest			R.Shoulder			Neck			R.ASIS			R.Thigh.Superior			R.Thigh.Lateral			R.Thigh.Inferior			R.Patella			L.Thigh.Superior			L.Thigh.Lateral			L.Thigh.Inferior			L.Patella			L.Shank.Superior			L.Shank.Lateral			L.Shank.Inferior			R.Shank.Superior			R.Shank.Lateral			R.Shank.Inferior			R.Heel			R.Midfoot.Superior			R.Midfoot.Lateral			R.Toe			L.Heel			L.Midfoot.Lateral			L.Midfoot.Superior			L.Toe			L.Elbow			L.Wrist			R.Elbow			R.Wrist			
		X1	Y1	Z1	X2	Y2	Z2	X3	Y3	Z3	X4	Y4	Z4	X5	Y5	Z5	X6	Y6	Z6	X7	Y7	Z7	X8	Y8	Z8	X9	Y9	Z9	X10	Y10	Z10	X11	Y11	Z11	X12	Y12	Z12	X13	Y13	Z13	X14	Y14	Z14	X15	Y15	Z15	X16	Y16	Z16	X17	Y17	Z17	X18	Y18	Z18	X19	Y19	Z19	X20	Y20	Z20	X21	Y21	Z21	X22	Y22	Z22	X23	Y23	Z23	X24	Y24	Z24	X25	Y25	Z25	X26	Y26	Z26	X27	Y27	Z27	X28	Y28	Z28	X29	Y29	Z29	X30	Y30	Z30	X31	Y31	Z31	X32	Y32	Z32	X33	Y33	Z33	

89	21.912857142857	823.522997830880	957.930915473417	304.383519756120	626.002774625753	1005.350677948217	481.522879561433	771.837091012377	1435.739392116431	300.188315827944	896.892012555871	1358.445138704392	441.461164211510	840.707305419205	1428.204569573830	628.325324716456	795.863485817216	1491.285933351852	450.340726084580	858.585496057948	929.886177562379	575.617549678797	862.015003834284	718.972353120011	556.507246217017	763.695660769657	624.382260385957	621.905311346063	830.189943761327	554.639034930866	546.231387327338	808.735033241763	452.835452606625	561.734817071758	895.661823460822	764.801078691775	342.805747855618	826.811660021677	635.281280030159	284.379331086613	922.220768557331	569.382550613362	347.751397183505	933.461942504243	496.114727629386	357.581155610008	906.174708764220	421.191032337446	351.259664679340	819.920652658108	305.570024257462	299.803058125489	869.859943525855	195.481755552754	370.862277783954	737.235258709148	385.115711779745	569.153299770365	624.452036692377	331.984661337081	633.905547125339	616.466535873261	224.746941005648	579.292567361544	418.456448691228	129.748494648814	558.550853563374	597.511092161603	110.267667685864	587.806876323680	492.505219529577	81.157426242058	624.996692818534	686.045820722641	34.069309528286	603.207687294444	740.912213029811	38.981815254226	408.854997650212	816.018794026714	36.390107230576	329.421971247925	899.541349636313	96.932613727122	356.991677784819	1027.870861334381	41.719963723561	329.833971786879	670.241489716586	1096.986115449791	184.226771895302	777.976526164761	857.948535372876	160.436946852848	926.940583887854	1087.543700553370	726.201858979110	1161.851788865888	989.577009755728	687.221386882943	
90	21.926071428571	824.751620559482	958.413311017398	301.751774265620	626.416935503580	1005.817065594751	478.129766103697	774.136207780626	1436.555835119592	297.936241853195	898.106625962420	1358.903736156678	439.974415509289	840.767261789972	1428.436254975323	626.562751643258	797.133388249929	1491.861466433367	448.335886024773	858.739089820904	930.513678863263	572.891672771778	866.858926797478	720.402630778177	553.971982503513	771.207510062487	624.025528596519	619.683195799336	839.433294527406	555.186440497412	544.076758207731	819.206091007307	451.794222274668	560.885321111611	895.411165637581	763.750550058158	339.193878235316	824.269725647294	634.999972435315	282.015345477587	919.030509058506	568.232374027213	345.147063933166	929.437661962355	495.241133169368	355.496939372172	901.778756079269	420.406064496222	349.491774946970	814.852702128950	305.101166590525	298.499659888015	864.076197572409	195.046547676071	370.114609219044	745.464902379347	385.146570044105	568.359442811824	630.855194060462	336.138141907586	633.064621224799	619.701748038933	228.823294467981	579.561559257360	419.103257615771	142.695239996592	559.479611631052	596.414292637993	113.259860415629	588.393916629200	490.331299921550	89.865585165023	625.601411102395	679.811353706438	32.976221259709	603.360897609228	734.215113203461	38.951601962504	408.719353926031	809.317743760645	36.244899207405	329.259642258099	892.904138163908	96.745978595110	356.812034560728	1021.239232391659	41.402114569297	329.750945029271	674.777964453975	1098.308061834292	178.383738786074	790.719667352058	863.239212089185	153.723179154571	919.693503869067	1085.456317192331	724.578612224672	1149.145330449773	972.113582414724	691.853223855485	
91	21.939285714286	825.769961492447	958.859102672915	299.268085444776	626.607402458023	1006.221613582371	474.894189051943	776.339522275453	1437.275327534663	295.763220927482	899.188613977893	1359.277075403198	438.587731974500	840.682891474705	1428.602063557127	624.885821371343	798.337095926281	1492.375127484052	446.390190498041	858.740309267582	931.119856282188	570.363646121044	872.047102232219	722.091271731645	551.268599599180	779.544337032747	623.730831537087	617.431923316031	849.438328878855	556.034902174928	541.656687919844	830.596710093341	451.058147723271	559.650388112529	894.921725649362	762.682521270260	335.760569958964	821.556158721624	634.808192500910	279.696003803228	915.564657461706	567.129899020519	342.669677896073	925.115074549933	494.391388471718	353.447919170428	897.140869370432	419.667910065629	347.717227806595	809.599054108661	304.642792169333	297.189466395937	858.194259325964	194.634990914675	369.341386651272	754.723994001099	385.434290668487	567.310846880097	638.474742083346	340.656799410411	632.125738837408	623.951518447103	233.420889411519	579.667927882585	421.122114245347	156.772881105288	560.369744378630	596.107089144678	116.970948108022	588.884421307650	489.190183196930	99.711945130783	626.213285842975	673.897898266409	31.752492077776	603.549804258718	727.523808600347	38.911799554586	408.563672067387	802.621225606590	36.102511079080	329.074504281180	886.261563534899	96.571402715557	356.609608568978	1014.606810565683	41.134500698103	329.659992240972	679.673049120197	1099.543452559447	172.434800793152	803.742933515514	868.803025037928	147.036862463260	911.941360237289	1083.459586671381	723.088309044076	1134.658675198476	954.963303275352	696.592837964504	
92	21.952500000000	826.585635355978	959.279021383783	296.959679895567	626.592184453432	1006.573681872049	471.841251268437	778.416623284880	1437.904163640521	293.686889147300	900.124700872146	1359.582668654566	437.305036115485	840.452119583401	1428.717133831541	623.304422265380	799.471308478653	1492.836631618832	444.514466440756	858.601929246708	931.720386976147	568.070983616610	877.460800403512	724.083228330001	548.430346927174	788.534101844048	623.602804557527	615.167904547108	860.018869938590	557.269111224866	539.019675474030	842.739369887931	450.732893313563	558.044286319870	894.204196199549	761.615026118802	332.549548419037	818.685754697700	634.700747208894	277.473043353304	911.860514151385	566.079932350965	340.350747891489	920.542013462581	493.573734359826	351.487768785305	892.301810869920	418.984068449813	345.987061885268	804.194855378500	304.212626744308	295.908374477946	852.227929207438	194.253635933830	368.570864279963	764.866258226391	386.059943981035	566.003889217371	647.188319049785	345.530524079662	631.078083578698	629.192337841973	238.516585850674	579.579915959291	424.558869106245	171.670370637050	561.157158493453	596.700123282050	121.403178054586	589.232117042442	489.220065591937	110.502783659169	626.773262156685	668.535360355645	30.521542858228	603.732710903150	720.843932443634	38.868019545837	408.393683523733	795.933430189696	35.971120230955	328.873907109124	879.617061447457	96.416916189127	356.390825667460	1007.975802248680	40.920278095818	329.556851129913	684.942702588250	1100.677292242008	166.451023150038	817.038604964673	874.631674043752	140.428577387343	903.702560312831	1081.593428931217	721.746156084343	1118.427812718913	938.330950080920	701.343355059221	
